<svg xmlns="http://www.w3.org/2000/svg" xmlns:xlink="http://www.w3.org/1999/xlink" width="500" zoomAndPan="magnify" viewBox="0 0 375 374.999991" height="500" preserveAspectRatio="xMidYMid meet" version="1.0"><defs><g/><clipPath id="2f3cc9c009"><path d="M 52 62 L 302 62 L 302 312 L 52 312 Z M 52 62 " clip-rule="nonzero"/></clipPath><clipPath id="bb861822fc"><path d="M 172.6875 27.140625 L 337.089844 191.542969 L 180.640625 347.992188 L 16.238281 183.589844 Z M 172.6875 27.140625 " clip-rule="nonzero"/></clipPath><clipPath id="29f282bf62"><path d="M 172.6875 27.140625 L 337.089844 191.542969 L 180.640625 347.992188 L 16.238281 183.589844 Z M 172.6875 27.140625 " clip-rule="nonzero"/></clipPath></defs><g clip-path="url(#2f3cc9c009)"><g clip-path="url(#bb861822fc)"><g clip-path="url(#29f282bf62)"><path fill="#ffc000" d="M 95.710938 214.652344 C 100.066406 219.007812 100.0625 226.074219 95.703125 230.433594 C 91.347656 234.789062 84.28125 234.792969 79.925781 230.433594 C 75.570312 226.078125 75.570312 219.015625 79.929688 214.65625 C 84.285156 210.296875 91.351562 210.292969 95.710938 214.652344 Z M 257.640625 160.457031 C 253.285156 156.101562 253.285156 149.035156 257.640625 144.675781 C 262 140.316406 269.066406 140.320312 273.421875 144.671875 C 277.777344 149.03125 277.777344 156.097656 273.421875 160.453125 C 269.0625 164.8125 261.996094 164.8125 257.640625 160.457031 Z M 259.355469 269.128906 C 265.40625 263 255.488281 240.277344 261.042969 234.726562 C 265.554688 230.214844 270.757812 226.046875 276.136719 221.707031 C 281.515625 217.71875 286.894531 213.382812 291.40625 208.871094 C 307.542969 192.734375 304.074219 175.386719 288.640625 159.949219 L 287.664062 158.972656 C 289.917969 151.171875 287.972656 142.417969 281.828125 136.269531 C 272.832031 127.273438 258.242188 127.273438 249.242188 136.273438 C 240.238281 145.277344 240.238281 159.867188 249.234375 168.863281 C 256.625 176.253906 267.789062 177.566406 276.53125 172.8125 C 282.859375 181.015625 280.601562 188.453125 273.019531 196.035156 C 269.550781 199.507812 265.210938 202.800781 260.703125 205.925781 C 256.535156 209.398438 251.851562 212.695312 247.167969 217.378906 C 234.847656 229.351562 247.40625 244.832031 241.429688 250.867188 C 235.417969 256.933594 219.753906 244.449219 207.78125 256.765625 C 203.09375 261.449219 199.625 266.308594 196.152344 270.472656 C 193.03125 274.984375 189.90625 279.148438 186.433594 282.621094 C 180.449219 288.605469 174.632812 291.121094 168.691406 289.316406 L 209.308594 80.621094 L 202.066406 73.378906 L 201.933594 73.351562 C 187.097656 59.855469 170.683594 57.5 155.359375 72.824219 C 150.847656 77.335938 146.507812 82.714844 142.519531 88.089844 C 138.179688 93.472656 134.015625 98.675781 129.503906 103.1875 C 123.953125 108.738281 101.226562 98.824219 95.097656 104.871094 C 89 110.890625 98.621094 134.070312 93.585938 139.105469 C 89.078125 143.613281 84.042969 147.605469 78.839844 151.773438 C 73.460938 155.761719 68.082031 160.101562 63.742188 164.4375 C 46.21875 181.964844 50.726562 198.960938 65.816406 214.054688 L 66.238281 214.472656 C 63.175781 222.667969 64.933594 232.253906 71.519531 238.839844 C 80.519531 247.835938 95.109375 247.835938 104.109375 238.835938 C 113.109375 229.835938 113.113281 215.242188 104.113281 206.246094 C 97.121094 199.25 86.746094 197.699219 78.242188 201.582031 C 71.8125 193.496094 73.609375 185.792969 81.609375 177.792969 C 85.082031 174.320312 89.246094 171.199219 93.757812 168.074219 C 97.917969 164.605469 102.777344 161.132812 107.464844 156.449219 C 119.78125 144.476562 107.292969 128.8125 113.363281 122.800781 C 119.394531 116.820312 134.875 129.382812 146.851562 117.0625 C 151.535156 112.378906 154.832031 107.695312 158.304688 103.527344 C 161.425781 99.015625 164.722656 94.679688 168.195312 91.207031 C 174 85.402344 179.726562 82.722656 185.773438 84.628906 L 145.148438 293.382812 L 150.175781 298.414062 C 165.265625 313.5 182.265625 318.011719 199.792969 300.484375 C 204.128906 296.148438 208.464844 290.769531 212.457031 285.390625 C 216.621094 280.183594 220.617188 275.152344 225.125 270.644531 C 230.160156 265.609375 253.335938 275.230469 259.355469 269.128906 " fill-opacity="1" fill-rule="nonzero"/></g></g></g><g fill="#ffc000" fill-opacity="1"><g transform="translate(202.689462, 242.989739)"><g><path d="M 0.34375 -19.84375 L 3.65625 -19.21875 L 0.234375 -1.234375 L -2.390625 -1.734375 L -15.1875 -17.015625 L -17.5 -4.8125 L -20.8125 -5.4375 L -17.515625 -22.828125 L -14.890625 -22.328125 L -2.09375 -7.046875 Z M 0.34375 -19.84375 "/></g></g></g><g fill="#ffc000" fill-opacity="1"><g transform="translate(206.691637, 221.907978)"><g><path d="M -1.734375 -17.4375 L -3.734375 -6.890625 L 0.734375 -3.890625 L -0.03125 0.15625 L -19.3125 -13.34375 L -18.59375 -17.203125 L 4.3125 -22.71875 L 3.53125 -18.625 Z M -5.0625 -16.734375 L -15.03125 -14.5 L -6.5625 -8.8125 Z M -5.0625 -16.734375 "/></g></g></g><g fill="#ffc000" fill-opacity="1"><g transform="translate(211.185496, 198.236232)"><g><path d="M 4.21875 -22.21875 L -9.765625 -24.84375 L 0.484375 -15.703125 L 0.15625 -13.953125 L -12.546875 -9.1875 L 1.25 -6.5625 L 0.546875 -2.84375 L -20.546875 -6.84375 L -19.9375 -10.0625 L -4.375 -15.78125 L -16.796875 -26.65625 L -16.1875 -29.875 L 4.921875 -25.90625 Z M 4.21875 -22.21875 "/></g></g></g><g fill="#ffc000" fill-opacity="1"><g transform="translate(216.857105, 168.360595)"><g><path d="M -20.546875 -6.84375 L -19.8125 -10.75 L 1.28125 -6.75 L 0.546875 -2.84375 Z M -20.546875 -6.84375 "/></g></g></g><g fill="#ffc000" fill-opacity="1"><g transform="translate(218.89255, 157.638732)"><g><path d="M 3.15625 -16.640625 L -3.828125 -13.5 C -3.847656 -13.3125 -3.890625 -13.039062 -3.953125 -12.6875 L -4.859375 -7.921875 L 1.28125 -6.75 L 0.546875 -2.84375 L -20.546875 -6.84375 L -18.90625 -15.515625 C -18.5625 -17.335938 -17.957031 -18.867188 -17.09375 -20.109375 C -16.226562 -21.359375 -15.164062 -22.238281 -13.90625 -22.75 C -12.644531 -23.257812 -11.238281 -23.367188 -9.6875 -23.078125 C -8.101562 -22.773438 -6.8125 -22.125 -5.8125 -21.125 C -4.8125 -20.132812 -4.171875 -18.863281 -3.890625 -17.3125 L 3.953125 -20.84375 Z M -10.4375 -19.125 C -11.789062 -19.382812 -12.910156 -19.140625 -13.796875 -18.390625 C -14.691406 -17.640625 -15.300781 -16.410156 -15.625 -14.703125 L -16.5 -10.125 L -8.078125 -8.53125 L -7.203125 -13.109375 C -6.878906 -14.816406 -7.003906 -16.179688 -7.578125 -17.203125 C -8.148438 -18.234375 -9.101562 -18.875 -10.4375 -19.125 Z M -10.4375 -19.125 "/></g></g></g><g fill="#ffc000" fill-opacity="1"><g transform="translate(147.696491, 253.202655)"><g><path d="M -1.53125 -17.453125 L -3.671875 -6.921875 L 0.78125 -3.875 L -0.03125 0.15625 L -19.140625 -13.578125 L -18.359375 -17.421875 L 4.59375 -22.65625 L 3.765625 -18.5625 Z M -4.859375 -16.765625 L -14.859375 -14.65625 L -6.46875 -8.890625 Z M -4.859375 -16.765625 "/></g></g></g><g fill="#ffc000" fill-opacity="1"><g transform="translate(152.479073, 229.607404)"><g><path d="M -16.671875 -25.765625 L 4.359375 -21.5 L 3.5625 -17.59375 L -5.4375 -19.421875 L -7.640625 -8.546875 L 1.359375 -6.71875 L 0.578125 -2.8125 L -20.453125 -7.078125 L -19.671875 -10.984375 L -10.984375 -9.21875 L -8.78125 -20.09375 L -17.46875 -21.859375 Z M -16.671875 -25.765625 "/></g></g></g><g fill="#ffc000" fill-opacity="1"><g transform="translate(157.632814, 204.18101)"><g><path d="M 4.484375 -22.125 L -9.453125 -24.921875 L 0.671875 -15.671875 L 0.328125 -13.9375 L -12.421875 -9.3125 L 1.328125 -6.53125 L 0.578125 -2.8125 L -20.453125 -7.078125 L -19.8125 -10.296875 L -4.171875 -15.8125 L -16.453125 -26.859375 L -15.796875 -30.046875 L 5.234375 -25.8125 Z M 4.484375 -22.125 "/></g></g></g><g fill="#ffc000" fill-opacity="1"><g transform="translate(163.668821, 174.40189)"><g><path d="M -1.53125 -17.453125 L -3.671875 -6.921875 L 0.78125 -3.875 L -0.03125 0.15625 L -19.140625 -13.578125 L -18.359375 -17.421875 L 4.59375 -22.65625 L 3.765625 -18.5625 Z M -4.859375 -16.765625 L -14.859375 -14.65625 L -6.46875 -8.890625 Z M -4.859375 -16.765625 "/></g></g></g><g fill="#ffc000" fill-opacity="1"><g transform="translate(168.451403, 150.806639)"><g><path d="M -20.453125 -7.078125 L -18.59375 -16.265625 C -18.144531 -18.515625 -17.304688 -20.421875 -16.078125 -21.984375 C -14.847656 -23.546875 -13.335938 -24.644531 -11.546875 -25.28125 C -9.753906 -25.925781 -7.816406 -26.035156 -5.734375 -25.609375 C -3.648438 -25.191406 -1.914062 -24.335938 -0.53125 -23.046875 C 0.851562 -21.765625 1.804688 -20.164062 2.328125 -18.25 C 2.847656 -16.332031 2.882812 -14.25 2.4375 -12 L 0.578125 -2.8125 Z M -0.90625 -12.515625 C -0.59375 -14.054688 -0.609375 -15.46875 -0.953125 -16.75 C -1.304688 -18.039062 -1.960938 -19.113281 -2.921875 -19.96875 C -3.890625 -20.820312 -5.09375 -21.394531 -6.53125 -21.6875 C -7.976562 -21.976562 -9.3125 -21.914062 -10.53125 -21.5 C -11.75 -21.09375 -12.769531 -20.363281 -13.59375 -19.3125 C -14.425781 -18.269531 -15 -16.976562 -15.3125 -15.4375 L -16.359375 -10.3125 L -1.953125 -7.390625 Z M -0.90625 -12.515625 "/></g></g></g></svg>