<svg xmlns="http://www.w3.org/2000/svg" xmlns:xlink="http://www.w3.org/1999/xlink" width="500" zoomAndPan="magnify" viewBox="0 0 375 374.999991" height="500" preserveAspectRatio="xMidYMid meet" version="1.0"><defs><g/><clipPath id="713e1b3add"><path d="M 101 96 L 261 96 L 261 257 L 101 257 Z M 101 96 " clip-rule="nonzero"/></clipPath><clipPath id="19b2fc9740"><path d="M 158.296875 75.070312 L 283.425781 159.421875 L 203.117188 278.554688 L 77.988281 194.203125 Z M 158.296875 75.070312 " clip-rule="nonzero"/></clipPath><clipPath id="9f999b7c78"><path d="M 158.296875 75.070312 L 283.425781 159.421875 L 203.117188 278.554688 L 77.988281 194.203125 Z M 158.296875 75.070312 " clip-rule="nonzero"/></clipPath></defs><g clip-path="url(#713e1b3add)"><g clip-path="url(#19b2fc9740)"><g clip-path="url(#9f999b7c78)"><path fill="#68e8ed" d="M 132.476562 204.128906 C 135.792969 206.367188 136.667969 210.867188 134.429688 214.1875 C 132.191406 217.507812 127.691406 218.386719 124.375 216.148438 C 121.058594 213.914062 120.1875 209.414062 122.421875 206.09375 C 124.660156 202.773438 129.164062 201.894531 132.476562 204.128906 Z M 228.949219 149.476562 C 225.632812 147.246094 224.757812 142.742188 226.996094 139.421875 C 229.230469 136.105469 233.734375 135.226562 237.046875 137.460938 C 240.363281 139.695312 241.238281 144.199219 239.003906 147.519531 C 236.765625 150.835938 232.261719 151.714844 228.949219 149.476562 Z M 243.503906 218.519531 C 246.597656 213.863281 237.464844 200.613281 240.316406 196.386719 C 242.628906 192.949219 245.429688 189.648438 248.320312 186.214844 C 251.253906 183.003906 254.144531 179.574219 256.460938 176.136719 C 264.742188 163.851562 260.386719 153.226562 248.636719 145.304688 L 247.894531 144.804688 C 248.363281 139.550781 246.042969 134.214844 241.363281 131.058594 C 234.515625 126.445312 225.21875 128.257812 220.601562 135.113281 C 215.980469 141.964844 217.785156 151.265625 224.632812 155.878906 C 230.257812 159.671875 237.535156 159.121094 242.515625 155.003906 C 247.5625 159.449219 247.046875 164.46875 243.15625 170.242188 C 241.371094 172.882812 239.015625 175.523438 236.53125 178.074219 C 234.304688 180.804688 231.730469 183.488281 229.324219 187.054688 C 222.957031 196.214844 232.878906 204.519531 229.816406 209.109375 C 226.738281 213.722656 215.210938 207.710938 209.105469 217.046875 C 206.699219 220.613281 205.089844 224.140625 203.394531 227.226562 C 201.964844 230.488281 200.488281 233.53125 198.707031 236.175781 C 195.636719 240.730469 192.238281 243.058594 188.230469 242.644531 L 188.261719 104.605469 L 182.75 100.890625 L 182.664062 100.890625 C 171.539062 94.132812 160.785156 94.667969 152.917969 106.339844 C 150.601562 109.773438 148.503906 113.742188 146.628906 117.664062 C 144.53125 121.628906 142.519531 125.464844 140.207031 128.898438 C 137.355469 133.125 121.648438 129.632812 118.492188 134.246094 C 115.351562 138.839844 124.351562 152.417969 121.769531 156.25 C 119.453125 159.683594 116.742188 162.855469 113.941406 166.15625 C 111.007812 169.363281 108.117188 172.800781 105.890625 176.101562 C 96.894531 189.445312 101.871094 199.71875 113.355469 207.460938 L 113.675781 207.679688 C 112.742188 213.28125 115.046875 219.171875 120.0625 222.550781 C 126.910156 227.164062 136.207031 225.351562 140.824219 218.5 C 145.445312 211.644531 143.640625 202.347656 136.792969 197.730469 C 131.46875 194.140625 124.667969 194.441406 119.730469 197.972656 C 114.632812 193.617188 114.824219 188.484375 118.929688 182.394531 C 120.710938 179.75 122.976562 177.242188 125.464844 174.691406 C 127.6875 171.964844 130.355469 169.148438 132.757812 165.578125 C 139.125 156.417969 129.226562 147.988281 132.347656 143.402344 C 135.453125 138.84375 146.875 144.925781 152.976562 135.585938 C 155.382812 132.019531 156.902344 128.625 158.597656 125.539062 C 160.03125 122.277344 161.59375 119.105469 163.375 116.460938 C 166.355469 112.039062 169.671875 109.621094 173.761719 110.082031 L 173.730469 248.164062 L 177.558594 250.742188 C 189.042969 258.484375 200.433594 259.246094 209.429688 245.902344 C 211.65625 242.597656 213.753906 238.632812 215.632812 234.707031 C 217.640625 230.871094 219.5625 227.171875 221.878906 223.738281 C 224.460938 219.902344 240.421875 223.15625 243.503906 218.519531 " fill-opacity="1" fill-rule="nonzero"/></g></g></g><g fill="#ffffff" fill-opacity="1"><g transform="translate(58.740595, 295.183692)"><g><path d="M 9.828125 -2.703125 L 3.953125 -2.703125 L 2.828125 0 L -0.15625 0 L 5.46875 -12.640625 L 8.359375 -12.640625 L 14.015625 0 L 10.953125 0 Z M 8.90625 -4.9375 L 6.90625 -9.765625 L 4.890625 -4.9375 Z M 8.90625 -4.9375 "/></g></g></g><g fill="#ffffff" fill-opacity="1"><g transform="translate(73.24217, 295.183692)"><g><path d="M 13.09375 -12.640625 L 13.09375 0 L 10.171875 0 L 10.171875 -5.1875 L 4.421875 -5.1875 L 4.421875 0 L 1.5 0 L 1.5 -12.640625 L 4.421875 -12.640625 L 4.421875 -7.65625 L 10.171875 -7.65625 L 10.171875 -12.640625 Z M 13.09375 -12.640625 "/></g></g></g><g fill="#ffffff" fill-opacity="1"><g transform="translate(88.502201, 295.183692)"><g><path d="M 13 0 L 12.984375 -7.59375 L 9.265625 -1.34375 L 7.953125 -1.34375 L 4.25 -7.421875 L 4.25 0 L 1.5 0 L 1.5 -12.640625 L 3.921875 -12.640625 L 8.65625 -4.78125 L 13.3125 -12.640625 L 15.71875 -12.640625 L 15.75 0 Z M 13 0 "/></g></g></g><g fill="#ffffff" fill-opacity="1"><g transform="translate(106.41685, 295.183692)"><g><path d="M 9.828125 -2.703125 L 3.953125 -2.703125 L 2.828125 0 L -0.15625 0 L 5.46875 -12.640625 L 8.359375 -12.640625 L 14.015625 0 L 10.953125 0 Z M 8.90625 -4.9375 L 6.90625 -9.765625 L 4.890625 -4.9375 Z M 8.90625 -4.9375 "/></g></g></g><g fill="#ffffff" fill-opacity="1"><g transform="translate(120.918425, 295.183692)"><g><path d="M 1.5 -12.640625 L 7.25 -12.640625 C 8.613281 -12.640625 9.820312 -12.378906 10.875 -11.859375 C 11.9375 -11.335938 12.757812 -10.597656 13.34375 -9.640625 C 13.925781 -8.691406 14.21875 -7.585938 14.21875 -6.328125 C 14.21875 -5.054688 13.925781 -3.945312 13.34375 -3 C 12.757812 -2.050781 11.9375 -1.3125 10.875 -0.78125 C 9.820312 -0.257812 8.613281 0 7.25 0 L 1.5 0 Z M 7.09375 -2.40625 C 8.363281 -2.40625 9.375 -2.753906 10.125 -3.453125 C 10.875 -4.160156 11.25 -5.117188 11.25 -6.328125 C 11.25 -7.523438 10.875 -8.472656 10.125 -9.171875 C 9.375 -9.878906 8.363281 -10.234375 7.09375 -10.234375 L 4.421875 -10.234375 L 4.421875 -2.40625 Z M 7.09375 -2.40625 "/></g></g></g><g fill="#ffffff" fill-opacity="1"><g transform="translate(136.503514, 295.183692)"><g/></g></g><g fill="#ffffff" fill-opacity="1"><g transform="translate(142.282792, 295.183692)"><g><path d="M 11.734375 -2.390625 L 11.734375 0 L 0.6875 0 L 0.6875 -1.890625 L 7.625 -10.265625 L 0.828125 -10.265625 L 0.828125 -12.640625 L 11.46875 -12.640625 L 11.46875 -10.75 L 4.546875 -2.390625 Z M 11.734375 -2.390625 "/></g></g></g><g fill="#ffffff" fill-opacity="1"><g transform="translate(155.068805, 295.183692)"><g><path d="M 9.828125 -2.703125 L 3.953125 -2.703125 L 2.828125 0 L -0.15625 0 L 5.46875 -12.640625 L 8.359375 -12.640625 L 14.015625 0 L 10.953125 0 Z M 8.90625 -4.9375 L 6.90625 -9.765625 L 4.890625 -4.9375 Z M 8.90625 -4.9375 "/></g></g></g><g fill="#ffffff" fill-opacity="1"><g transform="translate(169.57038, 295.183692)"><g><path d="M 13 0 L 12.984375 -7.59375 L 9.265625 -1.34375 L 7.953125 -1.34375 L 4.25 -7.421875 L 4.25 0 L 1.5 0 L 1.5 -12.640625 L 3.921875 -12.640625 L 8.65625 -4.78125 L 13.3125 -12.640625 L 15.71875 -12.640625 L 15.75 0 Z M 13 0 "/></g></g></g><g fill="#ffffff" fill-opacity="1"><g transform="translate(187.485028, 295.183692)"><g><path d="M 1.5 -12.640625 L 4.421875 -12.640625 L 4.421875 0 L 1.5 0 Z M 1.5 -12.640625 "/></g></g></g><g fill="#ffffff" fill-opacity="1"><g transform="translate(194.076939, 295.183692)"><g><path d="M 9.5625 0 L 7.109375 -3.515625 L 4.421875 -3.515625 L 4.421875 0 L 1.5 0 L 1.5 -12.640625 L 6.96875 -12.640625 C 8.09375 -12.640625 9.066406 -12.453125 9.890625 -12.078125 C 10.710938 -11.710938 11.347656 -11.1875 11.796875 -10.5 C 12.242188 -9.8125 12.46875 -9 12.46875 -8.0625 C 12.46875 -7.113281 12.238281 -6.300781 11.78125 -5.625 C 11.332031 -4.945312 10.691406 -4.425781 9.859375 -4.0625 L 12.703125 0 Z M 9.5 -8.0625 C 9.5 -8.769531 9.269531 -9.3125 8.8125 -9.6875 C 8.351562 -10.070312 7.6875 -10.265625 6.8125 -10.265625 L 4.421875 -10.265625 L 4.421875 -5.859375 L 6.8125 -5.859375 C 7.6875 -5.859375 8.351562 -6.050781 8.8125 -6.4375 C 9.269531 -6.820312 9.5 -7.363281 9.5 -8.0625 Z M 9.5 -8.0625 "/></g></g></g><g fill="#ffffff" fill-opacity="1"><g transform="translate(208.018703, 295.183692)"><g/></g></g><g fill="#ffffff" fill-opacity="1"><g transform="translate(213.797981, 295.183692)"><g><path d="M 7.5625 -4.484375 L 7.5625 0 L 4.640625 0 L 4.640625 -4.515625 L -0.25 -12.640625 L 2.859375 -12.640625 L 6.234375 -7.03125 L 9.609375 -12.640625 L 12.484375 -12.640625 Z M 7.5625 -4.484375 "/></g></g></g><g fill="#ffffff" fill-opacity="1"><g transform="translate(226.674277, 295.183692)"><g><path d="M 7.625 0.21875 C 6.3125 0.21875 5.128906 -0.0625 4.078125 -0.625 C 3.023438 -1.195312 2.195312 -1.976562 1.59375 -2.96875 C 1 -3.96875 0.703125 -5.085938 0.703125 -6.328125 C 0.703125 -7.566406 1 -8.679688 1.59375 -9.671875 C 2.195312 -10.660156 3.023438 -11.4375 4.078125 -12 C 5.128906 -12.570312 6.3125 -12.859375 7.625 -12.859375 C 8.9375 -12.859375 10.113281 -12.570312 11.15625 -12 C 12.207031 -11.4375 13.035156 -10.660156 13.640625 -9.671875 C 14.242188 -8.679688 14.546875 -7.566406 14.546875 -6.328125 C 14.546875 -5.085938 14.242188 -3.96875 13.640625 -2.96875 C 13.035156 -1.976562 12.207031 -1.195312 11.15625 -0.625 C 10.113281 -0.0625 8.9375 0.21875 7.625 0.21875 Z M 7.625 -2.28125 C 8.375 -2.28125 9.046875 -2.453125 9.640625 -2.796875 C 10.242188 -3.140625 10.71875 -3.613281 11.0625 -4.21875 C 11.40625 -4.832031 11.578125 -5.535156 11.578125 -6.328125 C 11.578125 -7.109375 11.40625 -7.804688 11.0625 -8.421875 C 10.71875 -9.035156 10.242188 -9.515625 9.640625 -9.859375 C 9.046875 -10.203125 8.375 -10.375 7.625 -10.375 C 6.875 -10.375 6.195312 -10.203125 5.59375 -9.859375 C 5 -9.515625 4.53125 -9.035156 4.1875 -8.421875 C 3.84375 -7.804688 3.671875 -7.109375 3.671875 -6.328125 C 3.671875 -5.535156 3.84375 -4.832031 4.1875 -4.21875 C 4.53125 -3.613281 5 -3.140625 5.59375 -2.796875 C 6.195312 -2.453125 6.875 -2.28125 7.625 -2.28125 Z M 7.625 -2.28125 "/></g></g></g><g fill="#ffffff" fill-opacity="1"><g transform="translate(242.584424, 295.183692)"><g><path d="M 7.109375 0.21875 C 5.304688 0.21875 3.898438 -0.28125 2.890625 -1.28125 C 1.890625 -2.28125 1.390625 -3.707031 1.390625 -5.5625 L 1.390625 -12.640625 L 4.3125 -12.640625 L 4.3125 -5.671875 C 4.3125 -3.410156 5.253906 -2.28125 7.140625 -2.28125 C 8.046875 -2.28125 8.738281 -2.550781 9.21875 -3.09375 C 9.707031 -3.644531 9.953125 -4.503906 9.953125 -5.671875 L 9.953125 -12.640625 L 12.84375 -12.640625 L 12.84375 -5.5625 C 12.84375 -3.707031 12.335938 -2.28125 11.328125 -1.28125 C 10.328125 -0.28125 8.921875 0.21875 7.109375 0.21875 Z M 7.109375 0.21875 "/></g></g></g><g fill="#ffffff" fill-opacity="1"><g transform="translate(257.483303, 295.183692)"><g><path d="M 5.65625 0.21875 C 4.65625 0.21875 3.6875 0.0820312 2.75 -0.1875 C 1.820312 -0.457031 1.070312 -0.8125 0.5 -1.25 L 1.5 -3.453125 C 2.039062 -3.054688 2.679688 -2.734375 3.421875 -2.484375 C 4.171875 -2.242188 4.921875 -2.125 5.671875 -2.125 C 6.503906 -2.125 7.117188 -2.25 7.515625 -2.5 C 7.910156 -2.75 8.109375 -3.078125 8.109375 -3.484375 C 8.109375 -3.785156 7.988281 -4.035156 7.75 -4.234375 C 7.519531 -4.429688 7.21875 -4.585938 6.84375 -4.703125 C 6.476562 -4.828125 5.984375 -4.960938 5.359375 -5.109375 C 4.398438 -5.335938 3.613281 -5.566406 3 -5.796875 C 2.382812 -6.023438 1.859375 -6.390625 1.421875 -6.890625 C 0.984375 -7.398438 0.765625 -8.078125 0.765625 -8.921875 C 0.765625 -9.660156 0.960938 -10.328125 1.359375 -10.921875 C 1.753906 -11.515625 2.351562 -11.984375 3.15625 -12.328125 C 3.957031 -12.679688 4.9375 -12.859375 6.09375 -12.859375 C 6.894531 -12.859375 7.679688 -12.757812 8.453125 -12.5625 C 9.222656 -12.375 9.894531 -12.097656 10.46875 -11.734375 L 9.578125 -9.515625 C 8.410156 -10.179688 7.238281 -10.515625 6.0625 -10.515625 C 5.25 -10.515625 4.644531 -10.378906 4.25 -10.109375 C 3.863281 -9.847656 3.671875 -9.5 3.671875 -9.0625 C 3.671875 -8.632812 3.894531 -8.3125 4.34375 -8.09375 C 4.789062 -7.882812 5.476562 -7.679688 6.40625 -7.484375 C 7.375 -7.253906 8.164062 -7.023438 8.78125 -6.796875 C 9.394531 -6.566406 9.921875 -6.203125 10.359375 -5.703125 C 10.796875 -5.210938 11.015625 -4.546875 11.015625 -3.703125 C 11.015625 -2.984375 10.8125 -2.320312 10.40625 -1.71875 C 10.007812 -1.125 9.40625 -0.648438 8.59375 -0.296875 C 7.789062 0.046875 6.8125 0.21875 5.65625 0.21875 Z M 5.65625 0.21875 "/></g></g></g><g fill="#ffffff" fill-opacity="1"><g transform="translate(269.673366, 295.183692)"><g><path d="M 7.109375 0.21875 C 5.304688 0.21875 3.898438 -0.28125 2.890625 -1.28125 C 1.890625 -2.28125 1.390625 -3.707031 1.390625 -5.5625 L 1.390625 -12.640625 L 4.3125 -12.640625 L 4.3125 -5.671875 C 4.3125 -3.410156 5.253906 -2.28125 7.140625 -2.28125 C 8.046875 -2.28125 8.738281 -2.550781 9.21875 -3.09375 C 9.707031 -3.644531 9.953125 -4.503906 9.953125 -5.671875 L 9.953125 -12.640625 L 12.84375 -12.640625 L 12.84375 -5.5625 C 12.84375 -3.707031 12.335938 -2.28125 11.328125 -1.28125 C 10.328125 -0.28125 8.921875 0.21875 7.109375 0.21875 Z M 7.109375 0.21875 "/></g></g></g><g fill="#ffffff" fill-opacity="1"><g transform="translate(284.572244, 295.183692)"><g><path d="M 4.421875 -10.296875 L 4.421875 -6.953125 L 10.28125 -6.953125 L 10.28125 -4.609375 L 4.421875 -4.609375 L 4.421875 0 L 1.5 0 L 1.5 -12.640625 L 11.046875 -12.640625 L 11.046875 -10.296875 Z M 4.421875 -10.296875 "/></g></g></g><g fill="#ffffff" fill-opacity="1"><g transform="translate(296.780389, 295.183692)"><g><path d="M 1.5 -12.640625 L 4.421875 -12.640625 L 4.421875 0 L 1.5 0 Z M 1.5 -12.640625 "/></g></g></g></svg>